<svg viewBox="0 0 24 24" xmlns="http://www.w3.org/2000/svg">
  <path d="m 1.97,9.89 c 1.66,0.18 3.45,0 5.13,0 h 1.48 c 0.2,0 0.45,0.06 0.64,-0.02 0.21,-0.09 0.36,-0.35 0.5,-0.53 0.35,-0.44 0.7,-0.89 1.05,-1.34 l 3,-3.83 c 0.42,-0.54 1.14,-1.19 1.36,-1.85 -4.67,-2.18 -10.48,0.3 -12.47,4.94 -0.35,0.81 -0.66,1.74 -0.7,2.63 m 10.59,0 0.05,0.05 c 1.3,-0.24 2.79,-0.05 4.11,-0.05 0.62,0 1.22,0.09 1.65,0.6 1.11,1.33 -0.96,3.08 -1.72,4.07 -0.31,0.4 -0.62,0.8 -1.03,1.1 -0.94,0.69 -1.89,0.61 -3,0.61 h -4.48 c -0.87,0 -2.05,0.21 -2.42,-0.83 -0.44,-1.24 1.33,-2.34 1.82,-3.33 H 1.97 c 0.03,1.23 0.54,2.55 1.14,3.61 0.51,0.9 1.16,1.75 1.95,2.43 3.98,3.41 9.84,3.06 13.4,-0.77 0.78,-0.83 1.38,-1.85 1.78,-2.91 1.08,-2.83 0.75,-6.05 -0.88,-8.61 -0.38,-0.61 -0.86,-1.16 -1.37,-1.66 -0.13,-0.13 -0.39,-0.46 -0.6,-0.45 -0.16,0 -0.28,0.21 -0.37,0.31 -0.3,0.36 -0.58,0.74 -0.86,1.11 -0.81,1.08 -1.66,2.13 -2.49,3.19 -0.37,0.47 -0.9,0.97 -1.14,1.53 m -3.24,4.16 h 3.24 c 0.4,0 1.02,0.12 1.39,-0.07 0.37,-0.19 1.3,-1.25 1.06,-1.68 -0.21,-0.38 -1.32,-0.19 -1.7,-0.19 h -1.71 c -0.23,0 -0.56,-0.06 -0.77,0.03 -0.2,0.09 -0.35,0.36 -0.48,0.53 -0.33,0.43 -0.82,0.88 -1.01,1.39 z " />
</svg>